# xmcd
#
# Track frame offsets:
#	150
#	14192
#	25054
#	42953
#
# Disc length: 875 seconds
#
# Revision: 0
# Processed by: cddbd v1.5.1PL0 Copyright (c) Steve Scherf et al.
# Submitted via: dBpowerAMP V4.0
#
DISCID=2c036904
DTITLE=Paul Personne - CD Bonus Inédits (Demain...Il f'ra beau, Coup D'Blues)
DYEAR=2003
DGENRE=Blues
TTITLE0=Marie
TTITLE1=La Paresse
TTITLE2=Bluesy'ment
TTITLE3=Chaque Matin Il Se Lève
EXTD=
EXTT0=
EXTT1=
EXTT2=
EXTT3=
PLAYORDER=
